{"title":"Green Day - Dookie - Custom Remaster by MC Lurken 16-bit 44.1kHz","uid":7688466,"size":302970699,"categoryP":"audio","categoryS":"flac","magnet":"?xt=urn:btih:189549a7f650b07d0866a5f9a06e9c2a3ef4885a&amp;dn=Green+Day+-+Dookie+-+Custom+Remaster+by+MC+Lurken+16-bit+44.1kHz&amp;tr=udp%3A%2F%2Ftracker.openbittorrent.com%3A80&amp;tr=udp%3A%2F%2Fopen.demonii.com%3A1337&amp;tr=udp%3A%2F%2Ftracker.coppersurfer.tk%3A6969&amp;tr=udp%3A%2F%2Fexodus.desync.com%3A6969","seeders":1,"leechers":0,"uploader":"beavis39","files":-1,"time":1349026640,"description":"Green Day - Dookie - Custom Remaster by MC Lurken (a.k.a. Beavis39)\n\n\n\n1 - Burnout\n2 - Having A Blast\n3 - Chump\n4 - Longview\n5 - Welcome To Paradise\n6 - Pulling Teeth\n7 - Basket Case\n8 - She\n9 - Sassafras Roots\n10 - When I Come Around\n11 - Coming Clean\n12 - Emenius Sleepus\n13 - In The End\n14 - F.O.D.,All By Myself\n\n\n\nSetup:\n-HP G72-250US\n-Intel Core i3 M350 2.27GHz\n-8Gb PC3-10700 RAM\n-Win7 64-bit SP1\n-SB X-Fi Surround 5.1\n\n\nProcess:\n-Original 16-bit/44.1kHz files joined in Wavelab 6\n-Remove DC offset and save as 64-bit float/44.1kHz\n-Resample to 384kHz in Wavelab w/crystal resampler ultra(slow) relax background priority\n-Create new 64-bit/384kHz master recording in Wavelab\n\n\nAs reported in Wavelab:\n-Original 16-bit/44.1kHz: Apparent Bit Resolution = 16, Peak = 0db\n-With DC Offset Removed: Apparent Bit Resolution = 19, Peak = 0db\n-64-bit/384kHz Recording: Apparent Bit Resolution = 43, Peak = 1.262db\n\n\n-Resample new 64-bit/384kHz master recording to 64-bit/44.1kHz in Wavelab w/crystal resampler ultra(slow) relax background priority\n-Apply MBIT+ 16-bit Dither in Wavelab w/Izotope Ozone 5 VST Plugin\n-Flac encode level 0 with Trader's Little Helper\n-Tag and pic with xrecode II\n\n\nfoobar2000 1.1.14a / Dynamic Range Meter 1.1.1\nlog date: 2012-09-30 01:38:37\n\n--------------------------------------------------------------------------------\nAnalyzed: ? / ?\n--------------------------------------------------------------------------------\n\nDR         Peak         RMS     Duration Track\n--------------------------------------------------------------------------------\nDR9        0.00 dB    -9.70 dB      2:08 ?-01 - Burnout\nDR9        0.00 dB    -9.89 dB      2:45 ?-02 - Having A Blast\nDR9        0.00 dB   -10.55 dB      2:54 ?-03 - Chump\nDR8        0.00 dB   -11.43 dB      3:59 ?-04 - Longview\nDR9        0.00 dB    -9.95 dB      3:45 ?-05 - Welcome To Paradise\nDR9       -0.03 dB    -9.98 dB      2:31 ?-06 - Pulling Teeth\nDR8        0.00 dB   -10.45 dB      3:03 ?-07 - Basket Case\nDR9        0.00 dB    -9.79 dB      2:14 ?-08 - She\nDR8        0.00 dB    -8.62 dB      2:38 ?-09 - Sassafras Roots\nDR8        0.00 dB    -8.84 dB      2:58 ?-10 - When I Come Around\nDR8        0.00 dB    -9.13 dB      1:35 ?-11 - Coming Clean\nDR8        0.00 dB    -9.33 dB      1:44 ?-12 - Emenius Sleepus\nDR9        0.00 dB    -9.93 dB      1:46 ?-13 - In The End\nDR9        0.00 dB   -14.70 dB      4:46 ?-14 - F.O.D.,All By Myself\n--------------------------------------------------------------------------------\n\nNumber of tracks:  14\nOfficial DR value: DR8\n\nSamplerate:        44100 Hz\nChannels:          2\nBits per sample:   16\nBitrate:           1411 kbps\nCodec:             PCM\n\n\n\nenjoy :)\n\n","torrent":{"xt":"urn:btih:189549a7f650b07d0866a5f9a06e9c2a3ef4885a","amp;dn":"Green+Day+-+Dookie+-+Custom+Remaster+by+MC+Lurken+16-bit+44.1kHz","amp;tr":["udp%3A%2F%2Ftracker.openbittorrent.com%3A80","udp%3A%2F%2Fopen.demonii.com%3A1337","udp%3A%2F%2Ftracker.coppersurfer.tk%3A6969","udp%3A%2F%2Fexodus.desync.com%3A6969"],"infoHash":"189549a7f650b07d0866a5f9a06e9c2a3ef4885a","infoHashBuffer":{"type":"Buffer","data":[24,149,73,167,246,80,176,125,8,102,165,249,160,110,156,42,62,244,136,90]},"announce":[],"urlList":[]}}